<svg xmlns="http://www.w3.org/2000/svg" viewBox="0 0 144.78 169"><defs><style>.cls-1{fill:#ec7745;}</style></defs><title>banco</title><g id="Capa_2" data-name="Capa 2"><g id="Capa_1-2" data-name="Capa 1"><path d="M42.53,85.1A42.55,42.55,0,1,0,0,42.53,42.53,42.53,0,0,0,42.53,85.1ZM27.67,59.36c.39-1.41.78-2.78,1.2-4.19.49-1.62.95-1.79,2.43-1a23.81,23.81,0,0,0,8,2.39,9.79,9.79,0,0,0,5.24-.7,4.09,4.09,0,0,0,1-7.18,13.12,13.12,0,0,0-3-1.76,71.57,71.57,0,0,1-8.21-3.66c-4.19-2.5-6.86-6-6.55-11.09.36-5.78,3.63-9.41,8.91-11.31,2.19-.81,2.19-.77,2.22-3.06V15.46c0-1.73.35-2,2-2.08h1.59c3.66,0,3.66,0,3.66,3.66,0,2.57,0,2.61,2.57,3a23,23,0,0,1,5.67,1.69,1.7,1.7,0,0,1,1.09,2.22c-.46,1.59-.88,3.17-1.41,4.72s-.95,1.69-2.36,1a18.07,18.07,0,0,0-9-1.79,6.17,6.17,0,0,0-2.4.49c-2.71,1.2-3.16,4.19-.84,6.05a14.84,14.84,0,0,0,3.91,2.19,70,70,0,0,1,7.14,3.24c7.29,4,9.26,13.2,4.12,19.43a13.66,13.66,0,0,1-7.11,4.54,2,2,0,0,0-1.72,2.26c.07,1.26,0,2.5,0,3.76a1.56,1.56,0,0,1-1.69,1.76c-1.34,0-2.71,0-4,0a1.64,1.64,0,0,1-1.76-1.86c0-.92,0-1.83,0-2.75,0-2-.07-2.11-2-2.43a24.61,24.61,0,0,1-7.22-2.08C27.36,61.68,27.18,61.23,27.67,59.36Z"/><path d="M138,88.65h-5a55.57,55.57,0,0,0-18.24-25.84,4.63,4.63,0,0,0-.14-1c-1.79-6.31.43-12,3-16.16a4,4,0,0,0-3.91-6.17c-7.57,1-12.78,3.74-16.37,6.87a15.83,15.83,0,0,0-5,8.24A51.2,51.2,0,0,1,11.41,83.23,49.88,49.88,0,0,0,8.2,115.91h0a.51.51,0,0,0,0,.17,50.66,50.66,0,0,0,4.22,11.23,58.82,58.82,0,0,0,10.81,16.34,31.11,31.11,0,0,1,8.38,20v1.9h0A3.69,3.69,0,0,0,35.31,169H57.57a3.66,3.66,0,0,0,3.66-3.66v-5.49a77,77,0,0,0,9.89.66,71.46,71.46,0,0,0,7.78-.42v5.25A3.66,3.66,0,0,0,82.56,169h22.33a3.66,3.66,0,0,0,3.66-3.66v-5.49a22,22,0,0,1,7.57-15.36l.74-.63c.07-.07.14-.1.21-.17h0a55.17,55.17,0,0,0,16.26-24.86H138a6.76,6.76,0,0,0,6.76-6.76V95.41A6.87,6.87,0,0,0,138,88.65Zm-27.85,1.2a5.53,5.53,0,1,1,5.52-5.53A5.51,5.51,0,0,1,110.1,89.85Z"/><path d="M25.42,31.07A222,222,0,0,1,61,44.93c1.72.85,3.24-1.74,1.51-2.59A227.47,227.47,0,0,0,26.22,28.17c-1.86-.55-2.65,2.35-.8,2.9Z"/><path d="M59.07,71.81c.18-7.59-3.85-13-10.15-16.7-1.48-.87-2.11-1.81-3.51-3.38a17.7,17.7,0,0,0-8.47-5.33V66.65L58.2,62.73C65.59,61.36,68.79,50,62.83,45.18a53.51,53.51,0,0,0-14.91-8.83,40.3,40.3,0,0,0-6.92-2c-1.44-.27-2.91-.46-4.37-.63-.29,0-3.87-.81-2.65-.4L38.61,36c-1.07-1.07-2.15-7.79-2.31-2.81-.12,3.69.38,1.55,2.29.28a12.46,12.46,0,0,1,8.52-2C52.7,32.4,58.42,30,60,24.13c1.38-5-1.71-12-7.34-12.92-8.2-1.38-16-.55-23.45,3.43C22.6,18.2,15.74,24.9,15.78,32.91c.05,7.61,5.85,19.12,13.7,21,3.58.87,7,.67,10.6,1.84A25.08,25.08,0,0,1,48,60l4.64-17.55L31.36,46.4c-10.65,2-9.32,17.5,0,20.25-1.68-1.24-2.08-1.41-1.21-.53.42.46.82.95,1.2,1.45a23.9,23.9,0,0,0,2.57,2.75,13.27,13.27,0,0,0,4.4,2.92c2.46.71-.3.75-.25-1.43-.33,13.52,20.67,13.51,21,0Z"/><path class="cls-1" d="M29.87,26H19.94L7.9,38.64l-.3,8.72L19.94,60h9.93L41,48.27V37.73Zm4.21,18L27.46,51H23l-6.62-7.22v-2.4l6.92-7.23h3.61l7.22,7.23Z"/><path class="cls-1" d="M73.79,38.64,61.76,26H51.83L40.7,37.73V48.27L51.83,60h9.93L74.1,47.36Zm-6.92,5.71-6.62,6.92H55.74l-6.62-7.22v-2.4L56,34.42h3.61l7.22,7.23Z"/></g></g></svg>