<svg xmlns="http://www.w3.org/2000/svg" viewBox="0 0 514 515.52"><defs><style>.cls-1{fill:#1d0925;}.cls-2{fill:#ec7745;}</style></defs><title>Capa 1</title><g id="Capa_2" data-name="Capa 2"><g id="Capa_3" data-name="Capa 3"><g id="Capa_1-2" data-name="Capa 1"><path class="cls-1" d="M23.82,323.42,281.13,76.08a7.64,7.64,0,0,0,6.22-2A7.27,7.27,0,0,0,289.49,68l53.33-51.25A14.45,14.45,0,0,1,363,17l41.32,41.39a45,45,0,0,0,6.23,56.07,47.24,47.24,0,0,0,57,7.27L508.9,163.1a13.8,13.8,0,0,1-.2,19.83l-53.33,51.25a7.64,7.64,0,0,0-6.22,2,7.27,7.27,0,0,0-2.14,6.07L189.7,489.57a14.44,14.44,0,0,1-20.21-.21l-41-41.11a45.06,45.06,0,0,0-5.3-57.4,47,47,0,0,0-58.37-6.37l-41-41.07A13.8,13.8,0,0,1,24,323.58l-.16-.16Z"/><text></text><g id="svg_7" data-name="svg 7"><g id="svg_5" data-name="svg 5"><path id="svg_6" data-name="svg 6" class="cls-2" d="M217.54,232.08a48.84,48.84,0,0,1,68.2.7,46.67,46.67,0,0,1-.69,66.92,48.85,48.85,0,0,1-68.2-.71,46.66,46.66,0,0,1,.69-66.91Zm50.94,17.25-9.26,43.93L223.8,257.79l44.68-8.46ZM429.86,214.5a7.39,7.39,0,0,1,10.48.11,7.07,7.07,0,0,1-.1,10.29,7.39,7.39,0,0,1-10.49-.11,7.07,7.07,0,0,1,.11-10.29Zm-19.14-19.16a7.4,7.4,0,0,1,10.49.1,7.07,7.07,0,0,1-.11,10.29,7.39,7.39,0,0,1-10.48-.1,7.13,7.13,0,0,1,.1-10.29Zm-19.13-19.13a7.38,7.38,0,0,1,10.48.11,7.07,7.07,0,0,1-.1,10.29,7.4,7.4,0,0,1-10.49-.11,7.14,7.14,0,0,1,.11-10.29ZM372.49,157a7.4,7.4,0,0,1,10.49.11,7.07,7.07,0,0,1-.11,10.29,7.39,7.39,0,0,1-10.49-.11,7.07,7.07,0,0,1,.11-10.29Zm-19.13-19.16a7.39,7.39,0,0,1,10.48.1,7.07,7.07,0,0,1-.1,10.29,7.4,7.4,0,0,1-10.49-.1,7.06,7.06,0,0,1,.11-10.29Zm-19.14-19.17a7.39,7.39,0,0,1,10.49.11,7.07,7.07,0,0,1-.11,10.29,7.4,7.4,0,0,1-10.49-.11,7.07,7.07,0,0,1,.11-10.29ZM315.08,99.54a7.4,7.4,0,0,1,10.49.11,7.06,7.06,0,0,1-.11,10.29,7.38,7.38,0,0,1-10.48-.11,7.14,7.14,0,0,1,.1-10.29ZM296,80.38a7.39,7.39,0,0,1,10.48.1,7.06,7.06,0,0,1-.1,10.29,7.4,7.4,0,0,1-10.49-.1A7.14,7.14,0,0,1,296,80.38ZM121.52,302.1l159.11-153a17,17,0,0,1,23.62.24L376,221.22a16.24,16.24,0,0,1-.23,23.17L216.6,397.3a17,17,0,0,1-23.61-.25l-71.71-71.82a16.18,16.18,0,0,1,.24-23.13Z"/></g></g><g id="Capa_1-2-2" data-name="Capa 1-2"><path class="cls-1" d="M163.25,249.92l-29.34,27.54,1.93,73.36,25,28.4,74,5.74,29.34-27.54-1.92-67.95-31.28-33.33Zm65.85,45.24,1.21,40.49L217.13,348l-41-4.47L169,336l-1-42,10.67-10,42.78,2.84Z"/><path class="cls-1" d="M330.53,168.08l-73-6.6L228.14,189l1.92,68,31.27,33.32,67.7,6.22L358.37,269l-1.05-74.19ZM327,205.33l1,40.24-13.32,12.5-41-4.46L266.57,246l-1.13-41.94,10.67-10,42.79,2.83Z"/></g></g></g></g></svg>