<svg xmlns="http://www.w3.org/2000/svg" viewBox="0 0 149.03 111"><defs><style>.cls-1{fill:#fcfcfc;fill-rule:evenodd;}.cls-2{fill:#ec7745;}</style></defs><title>talleres</title><g id="Capa_2" data-name="Capa 2"><g id="Capa_1-2" data-name="Capa 1"><path class="cls-1" d="M143.51,14.61A21,21,0,0,1,148.82,26a34.28,34.28,0,0,1,.21,4.84L149,58.49c0,1.49,0,3-.1,4.46a20.82,20.82,0,0,1-8.61,15.21c-6.12,4.26-13.1,3.26-20.41,3.24,2.39,7.18,7.23,13.82,12.47,18.85l-2,4-.06,0c-12.71-3.57-26.1-11.72-34.24-22.87a101.22,101.22,0,0,1-14.23-.76,34.85,34.85,0,0,1-18.7,6A65.8,65.8,0,0,1,48.26,101a66.85,66.85,0,0,1-20.61,9.69,7.64,7.64,0,0,1-1.15.26,4.07,4.07,0,0,1-3.64-1.51,4.84,4.84,0,0,1,.38-6.46c5-4.71,7.74-9.88,9.74-16.55-9.65,0-17.73,1-25.56-7.45C-2.36,68.37.15,43.73.69,28.94c.17-4.75-.13-7.88,1.65-12.83a24.26,24.26,0,0,1,13-14.25C21-.55,27,.07,32.93.08L68.76.19a28.05,28.05,0,0,1,7.47.69A22.74,22.74,0,0,1,88.06,8.43l41.38.13a18.17,18.17,0,0,1,14.07,6ZM121.12,56.29l-10.87,0-1.52,5.84-9.75,0q4.93-14.91,9.88-29.84c1.19-3.6,2.54-9.55,6.82-9.54,4.44,0,5.89,5.48,7.12,9.25l9.83,30.21-10,0-1.51-5.83Zm-2-7.67-3.39-12.73L112.33,48.6l6.82,0ZM93,13.1c4.1,17.43,8.43,48.05-2.74,63.52,2.63,0,5.22,0,7.85.06a57.13,57.13,0,0,0,22.6,19c.85.41,1.71.81,2.57,1.18a49.11,49.11,0,0,1-7.43-13.54,60.68,60.68,0,0,1-1.73-6.58c2.47,0,4.9,0,7.38.14,5.5.23,11.28.42,15.86-2.33a14.52,14.52,0,0,0,4.83-4.9,16.5,16.5,0,0,0,2.23-6.1,36.43,36.43,0,0,0,.19-5.23L144.71,30c0-.75,0-1.43,0-2.18a16.38,16.38,0,0,0-4.22-9.92,14.17,14.17,0,0,0-8.88-4.59,23.29,23.29,0,0,0-2.64-.09L93,13.1Z"/><path class="cls-2" d="M41.09,55.46l.08.09a5.22,5.22,0,0,1-.12,7,.51.51,0,0,1-.08.09,4.52,4.52,0,0,1-6.57-.07c-5.09-5-12.44-11.29-16.92-16.5a5.23,5.23,0,0,1-.2-7.09,3.83,3.83,0,0,1,.28-.29c2.87-3.76,13-12.42,17-16.26a4.53,4.53,0,0,1,6.67.12A5.27,5.27,0,0,1,42,28.33a.87.87,0,0,1-.23.31L27.46,42.53c2.28,2.37,4.27,4.13,6.25,5.89a92.54,92.54,0,0,1,7.39,7Zm14.71,0-.08.09a5.22,5.22,0,0,0,.08,7s.05.08.08.09a4.51,4.51,0,0,0,6.59,0c5.12-5,12.51-11.21,17-16.4a5.24,5.24,0,0,0,.24-7.09,2.44,2.44,0,0,0-.27-.29c-2.85-3.78-12.89-12.49-16.87-16.36a4.53,4.53,0,0,0-6.68,0A5.26,5.26,0,0,0,55,28.36a1,1,0,0,0,.23.32l14.23,14c-2.29,2.34-4.29,4.09-6.29,5.84a92.41,92.41,0,0,0-7.42,7Z"/></g></g></svg>