<svg xmlns="http://www.w3.org/2000/svg" viewBox="0 0 144.78 169"><defs><style>.cls-1{fill:#f9f9f9;}.cls-2{fill:#f7f6f5;}.cls-3{fill:#ec7745;}</style></defs><title>banco_1</title><g id="Capa_2" data-name="Capa 2"><g id="Capa_1-2" data-name="Capa 1"><path class="cls-1" d="M42.53,85.1A42.55,42.55,0,1,0,0,42.53,42.53,42.53,0,0,0,42.53,85.1ZM27.67,59.36c.39-1.41.78-2.78,1.2-4.19.49-1.62.95-1.79,2.43-1a23.81,23.81,0,0,0,8,2.39,9.79,9.79,0,0,0,5.24-.7,4.09,4.09,0,0,0,1-7.18,13.12,13.12,0,0,0-3-1.76,71.57,71.57,0,0,1-8.21-3.66c-4.19-2.5-6.86-6-6.55-11.09.36-5.78,3.63-9.41,8.91-11.31,2.19-.81,2.19-.77,2.22-3.06V15.46c0-1.73.35-2,2-2.08h1.59c3.66,0,3.66,0,3.66,3.66,0,2.57,0,2.61,2.57,3a23,23,0,0,1,5.67,1.69,1.7,1.7,0,0,1,1.09,2.22c-.46,1.59-.88,3.17-1.41,4.72s-.95,1.69-2.36,1a18.07,18.07,0,0,0-9-1.79,6.17,6.17,0,0,0-2.4.49c-2.71,1.2-3.16,4.19-.84,6.05a14.84,14.84,0,0,0,3.91,2.19,70,70,0,0,1,7.14,3.24c7.29,4,9.26,13.2,4.12,19.43a13.66,13.66,0,0,1-7.11,4.54,2,2,0,0,0-1.72,2.26c.07,1.26,0,2.5,0,3.76a1.56,1.56,0,0,1-1.69,1.76c-1.34,0-2.71,0-4,0a1.64,1.64,0,0,1-1.76-1.86c0-.92,0-1.83,0-2.75,0-2-.07-2.11-2-2.43a24.61,24.61,0,0,1-7.22-2.08C27.36,61.68,27.18,61.23,27.67,59.36Z"/><path class="cls-1" d="M138,88.65h-5a55.57,55.57,0,0,0-18.24-25.84,4.63,4.63,0,0,0-.14-1c-1.79-6.31.43-12,3-16.16a4,4,0,0,0-3.91-6.17c-7.57,1-12.78,3.74-16.37,6.87a15.83,15.83,0,0,0-5,8.24A51.2,51.2,0,0,1,11.41,83.23,49.88,49.88,0,0,0,8.2,115.91h0a.51.51,0,0,0,0,.17,50.66,50.66,0,0,0,4.22,11.23,58.82,58.82,0,0,0,10.81,16.34,31.11,31.11,0,0,1,8.38,20v1.9h0A3.69,3.69,0,0,0,35.31,169H57.57a3.66,3.66,0,0,0,3.66-3.66v-5.49a77,77,0,0,0,9.89.66,71.46,71.46,0,0,0,7.78-.42v5.25A3.66,3.66,0,0,0,82.56,169h22.33a3.66,3.66,0,0,0,3.66-3.66v-5.49a22,22,0,0,1,7.57-15.36l.74-.63c.07-.07.14-.1.21-.17h0a55.17,55.17,0,0,0,16.26-24.86H138a6.76,6.76,0,0,0,6.76-6.76V95.41A6.87,6.87,0,0,0,138,88.65Zm-27.85,1.2a5.53,5.53,0,1,1,5.52-5.53A5.51,5.51,0,0,1,110.1,89.85Z"/><path class="cls-2" d="M29.84,38.75c1.45-4.51,3.11-9.44,6.89-12.54,2.53-2.09,7-2.05,8.41-5.47.5-1.23-.52-7.35-.8-7.18l2.23.91-1.06,4.45c-.52.26-3-1.44-3.62-1.74-2.52-1.31-5-2.69-7.51-4l-.76,2.8c5.29-.71,9.72,1.09,14.45,3.27l.76-2.8a98.93,98.93,0,0,1-12.77,0c-1.66-.1-2.07,2.65-.39,2.95a46,46,0,0,0,20.42-.78,1.52,1.52,0,0,0,0-2.9A63.33,63.33,0,0,0,35.8,12.46a1.5,1.5,0,0,0-.4,2.94c6.08,2.12,19.82,4.64,16,14.18l2.2-.9c-1-.52-2-1-2.9-1.6-1.89-1.11-3-1.07-2.29-3.22.61-1.88,1.31-1.71,3.07-2.15,1-.25,4.32-1.32,5-.95,1.86,1,.44,3.69-.4,4.7a17.86,17.86,0,0,1-1.94,1.95,17.56,17.56,0,0,1-7.94,3.74L48.06,33a38.3,38.3,0,0,1,6.51-14.38l-2.74-1.16c-.78,2.44-3.87,7.75-1.06,9.86s7.67-1.07,10-2.4a1.5,1.5,0,0,0-1.51-2.59,22.31,22.31,0,0,1-3.95,2c-1.16.94-1.76.8-1.8-.4-.8-1.41.79-4.21,1.24-5.62.55-1.73-1.8-2.45-2.74-1.16a40.18,40.18,0,0,0-6.81,15.1A1.52,1.52,0,0,0,47,34.05a19.82,19.82,0,0,0,13-9c1.79-3,1.89-6.4-2.23-7.19-2.53-.49-5.57.54-8,1.18-2,.51-5.29,1.08-6.47,3.08-2.59,4.39,6.24,7.83,8.73,9.16a1.52,1.52,0,0,0,2.2-.89c4.59-11.5-10.56-15.25-18.1-17.87l-.4,3a60.65,60.65,0,0,1,19.49,3.16v-2.9a42.33,42.33,0,0,1-18.83.79l-.4,2.94a98.93,98.93,0,0,0,12.77,0c1.34-.09,2.22-2.12.75-2.8-5.15-2.36-10.19-4.44-16-3.67-1.34.17-2.22,2-.76,2.79,3.94,2.12,12.91,9.49,17.31,5,3.89-4-1.14-9.75-5.54-10.12-1.52-.12-2.73.2-3.3,1.74a4.28,4.28,0,0,0,.25,2.59c.48,1.92.43,4.65-1.29,6.19-.53.47-2,.64-2.66,1C31.47,25,28.89,31.88,27,38c-.59,1.84,2.3,2.63,2.89.8Z"/><path class="cls-2" d="M56.36,22.35c-4.68.27-9.4.38-14.07.81C39.45,23.42,37,23.83,35,26c-2.18,2.4-3.33,6.09-4.26,9.13-.69,2.26-2.22,6.07-1.13,8.49,2.29,5.08,6.47-.32,7.8-3,3.22-6.43,3-14.61,8.86-19.48l-2.51-1.46a117.6,117.6,0,0,0-7.4,25.73c-.25,1.54,2,2.83,2.75,1.16C42.2,40,42.26,31.92,47,26.19L44.5,24.73q-2.64,11.34-6.17,22.43l2.89.8a62.51,62.51,0,0,0,.6-13.18c-.13-1.83.09-6.5-1.82-7.68-1.32-.82-2.47,0-3.41.86-1.51,1.43-2.46,4.11-3.48,5.91l-3.95,7c-.82,1.42,1.23,3.17,2.35,1.82A42.83,42.83,0,0,0,40.93,22.5a1.51,1.51,0,0,0-2.9-.8A69.46,69.46,0,0,0,34.79,46c.06,1.39,2.09,2.17,2.79.76a16.8,16.8,0,0,0,.7-14.48c-1.14-2.66-3.16-4.87-4.05-7.65a13,13,0,0,1,2-11.42L33.5,12.1c-3,10.12-5.65,20.14-4.2,30.76.19,1.4,2.1,1.3,2.74.36a73.49,73.49,0,0,0,9.41-19.45c.37-1.17-1.14-2.49-2.2-1.7A45.81,45.81,0,0,1,27.08,28.6l1.84,1.85a17.66,17.66,0,0,1,7.94-9.9L34.6,19.26c.67,5.84-3.74,9.25-8,12.3l1.82,2.36A170.65,170.65,0,0,1,47,17.35L44.9,15.29A46.36,46.36,0,0,1,34.53,26.07l2,2.05,6.29-8.66c.85-1.17-.55-2.41-1.7-2.2-7.9,1.41-16.75,3.11-18,12.21-1.45,10.35,1,21,3.21,31,.42,1.89,3.31,1.09,2.9-.8-1.75-7.94-3.51-16-3.49-24.14,0-5.94.25-10.58,6.7-12.95A56.45,56.45,0,0,1,42,20.15L40.28,18,34,26.61c-.86,1.18.86,2.94,2,2.05A50.72,50.72,0,0,0,47.49,16.81c.82-1.19-.86-3-2.06-2a176,176,0,0,0-19.16,17c-1.15,1.18.38,3.38,1.81,2.36,5.15-3.66,10.31-7.95,9.52-14.89A1.52,1.52,0,0,0,35.34,18,21,21,0,0,0,26,29.65a1.52,1.52,0,0,0,1.85,1.85,49,49,0,0,0,12.88-6.83L38.56,23a70.73,70.73,0,0,1-9.11,18.74l2.74.35c-1.36-10,1.38-19.65,4.2-29.16.5-1.7-1.82-2.52-2.74-1.16a15.94,15.94,0,0,0-2.31,13.73c.75,2.47,2.35,4.47,3.54,6.72A13.83,13.83,0,0,1,35,45.28l2.8.76A67.09,67.09,0,0,1,40.93,22.5L38,21.7a39.85,39.85,0,0,1-8.64,18.81l2.36,1.82,4-6.95,2-3.47q1.34-3.35,1-.35c1.49,4.17.27,11.35-.33,15.6a1.5,1.5,0,0,0,2.89.8q3.53-11.1,6.17-22.43c.31-1.35-1.49-2.69-2.51-1.46-5.06,6.12-5.09,14.06-8.33,21l2.74,1.15a116.43,116.43,0,0,1,7.4-25.74c.64-1.53-1.51-2.29-2.51-1.46a18,18,0,0,0-5.31,7.85c-1.49,3.92-1.78,9.41-4.32,12.82-.83,1.11-.42,2.16-1.4.72-.84-1.22.13-3.26.51-4.49,1-3.07,1.9-6.35,4.55-8.29,4.21-3.07,12.95-2,18.15-2.32,1.91-.11,1.93-3.11,0-3Z"/><path class="cls-2" d="M17.39,59.81a200.24,200.24,0,0,0,23.29,9.87l-1-1.84-1,2.51a1.5,1.5,0,0,0,1.44,1.9,80.63,80.63,0,0,0,14.51-2.86,1.5,1.5,0,0,0-.8-2.89,20.39,20.39,0,0,1-16.35-2.76l-.36,2.74c3.57-1.4,30.13-8.4,19.69-15.25-4.36-2.86-7-3.27-9.62,1.47a50.06,50.06,0,0,0-5.53,18.91,1.51,1.51,0,0,0,2.56,1.06A41.76,41.76,0,0,0,54.5,45a1.51,1.51,0,0,0-2.79-.75c-5.21,6.93-5.35,15.58-5.15,23.91a1.5,1.5,0,0,0,2.94.4,215.92,215.92,0,0,1,10.39-21.7,1.5,1.5,0,0,0-2.59-1.52,79.5,79.5,0,0,0-8.19,18.27l2.94.39q1.23-11.4,2.16-22.84a1.53,1.53,0,0,0-1.5-1.5c-6.86-.55-5.63,8.78.92,9.08a1.52,1.52,0,0,0,1.06-2.57l-9.26-8.33-.3,2.36A31.31,31.31,0,0,1,55,36.22c.53-.11,5.15-1.22,5.53-.57.63,1.08-1.1,4.14-1.47,4.64-2.56,3.41-4.64,1.56-7.3-.09a22.83,22.83,0,0,0-7.65-2.89l.66,2.51A105.34,105.34,0,0,0,57.71,23.24L55,22.89q-3.3.25-4.63-2.13L48.6,18.31l-3.47-4.88a1.52,1.52,0,0,0-2.74.36c-.9,3.46.14,6.24,1.83,9.27,2.77,5,5.06,9.72,5.85,15.42s1.32,16.59-6.37,17a12.94,12.94,0,0,1-4.12-.42c-1.77-.54-4.49-2.26-5-4.24-.69-2.64,3.09-4.58,5-5.17a5,5,0,0,1,1.81-.26c2.24-.52,3.28,1,3.1,4.43l1.05,1.85a73.35,73.35,0,0,1,4.58-11.31l-2.59-1.51L42.61,49.1l2.74,1.15,2.27-10.59c.25-1.15-1.06-2.54-2.2-1.7a25.41,25.41,0,0,0-5.54,5.56l2.74,1.16,2.6-7.53-2.95-.4a56.6,56.6,0,0,0,6.19,24.06,1.51,1.51,0,0,0,2.36.31A6.2,6.2,0,0,0,52,53.84a1.52,1.52,0,0,0-2.36-.31L37.9,65.28l2.51.66c-1.28-8.72,1-17.12,3.43-25.44l-2.9-.79a271.16,271.16,0,0,0-2.5,27.74h3a105.17,105.17,0,0,1,2.14-22.66l-2.94-.4a221.75,221.75,0,0,1,.72,23.34A1.51,1.51,0,0,0,43.61,69,52.72,52.72,0,0,0,61.13,47.36a1.52,1.52,0,0,0-.54-2c-4.86-2.12-10.36,3-14.39,5.24L24.66,62.71c-1.7,1-.2,3.39,1.52,2.59a49.07,49.07,0,0,1,18.67-4.57l-.4-2.95-21,6.78,1.15,2.74a60.6,60.6,0,0,1,21.43-9.11L44.2,56.35c-.76,3.68-3.49,6-6.88,7.33-2,.78-8.34,3.39-8.58-1.21-.1-2,3.08-5.44,4.31-6.75A22.18,22.18,0,0,1,39.94,51l-2.2-1.69a37.52,37.52,0,0,1-3.33,8.3c-1,1.88-3.66,7-6,7.53-2.56.6-2.92-1.74-2.5-3.42a20.45,20.45,0,0,1,1.75-4.47,12.37,12.37,0,0,1,2.76-3.93l1-1.05q6.91,3.22-.71,1.52L29,53.06a12.87,12.87,0,0,1,1.84,6.76h3a6.72,6.72,0,0,0-1.33-4.38c-1.1-1.57-3.7-.07-2.59,1.51l.92,2.87a1.5,1.5,0,0,0,3,0,14.83,14.83,0,0,0-2.25-8.28,1.51,1.51,0,0,0-1.69-.69c-6.69,2.8-1.71,11.81,4.47,8.46,5.66-3.08,3.35-14.68-3.26-10.71C27.07,51,17.57,64.89,24.88,68.35,32.73,72.07,39.26,55,40.63,50.05a1.52,1.52,0,0,0-2.2-1.69c-4.22,2-18.95,14.07-11.31,19.3,2.93,2,8.33,0,11.19-1.11,4.42-1.7,7.8-4.67,8.79-9.4a1.53,1.53,0,0,0-1.85-1.85,62.44,62.44,0,0,0-22.14,9.41c-1.34.9-.55,3.29,1.16,2.74l21-6.78c1.55-.5,1.36-3-.4-2.94a53.15,53.15,0,0,0-20.19,5l1.52,2.59,15.74-8.89,7.46-4.21c2-1.16,7.3-5.34,9.7-4.3l-.54-2A50,50,0,0,1,42.1,66.44l2.26,1.29a221.75,221.75,0,0,0-.72-23.34c-.14-1.57-2.58-2.17-3-.4a108.69,108.69,0,0,0-2.25,23.46,1.5,1.5,0,0,0,3,0,261.85,261.85,0,0,1,2.4-26.95c.26-1.85-2.34-2.71-2.9-.79-2.58,8.92-4.79,17.7-3.42,27A1.51,1.51,0,0,0,40,67.4L51.71,55.66l-2.35-.31L48.7,59l2.35.3a53,53,0,0,1-5.78-22.55,1.5,1.5,0,0,0-2.94-.39l-2.6,7.52c-.59,1.72,1.81,2.43,2.74,1.16a19.79,19.79,0,0,1,4.46-4.49l-2.2-1.69L42.46,49.45c-.33,1.57,2,2.78,2.74,1.16l4.87-10.25c.82-1.72-1.71-3.25-2.59-1.51a78.8,78.8,0,0,0-4.88,12,1.52,1.52,0,0,0,1,1.85A4.56,4.56,0,0,0,49.51,49c.65-3.39-2.26-5.75-5.29-6.42C37.61,41.06,27.59,47.76,32.84,55c2.38,3.29,8.64,3.88,12.34,3.4,4.3-.57,6.6-3.49,7.51-7.52a37.3,37.3,0,0,0-.26-16.22,39.3,39.3,0,0,0-2.83-8.1c-1.79-3.73-5.47-7.53-4.32-12l-2.74.36c2.36,3.33,6.07,11.68,10.9,12.2a4,4,0,0,0,4.42-5.05,1.52,1.52,0,0,0-2.74-.36,101.84,101.84,0,0,1-12.46,16,1.51,1.51,0,0,0,.66,2.51c4.1.82,6.8,2.85,10.18,5.07,1.17.76,2.18,1.39,3.64,1.11,3.33-.63,6-6.46,6.52-9.37,1.62-9.54-16.68-1.45-20,.54a1.52,1.52,0,0,0-.3,2.36l9.26,8.33,1.06-2.56-.92-3.08-1.5-1.5Q50.28,52.54,49.05,64c-.18,1.74,2.47,2,3,.4a76.63,76.63,0,0,1,7.89-17.54L57.3,45.29A221.21,221.21,0,0,0,46.61,67.71l3,.4c-.18-7.84-.17-15.85,4.74-22.4L51.5,45a38.42,38.42,0,0,1-9.4,25.6l2.56,1.06c.42-4,3.29-21.94,9-18.64,5.2,3-4.16,5.45-6.66,6.42l-10.71,4.2A1.52,1.52,0,0,0,36,66.33a23.28,23.28,0,0,0,18.66,3.06l-.8-2.89a76,76,0,0,1-13.71,2.75l1.45,1.9,1-2.51a1.53,1.53,0,0,0-1-1.85A196.44,196.44,0,0,1,18.9,57.22c-1.72-.87-3.24,1.72-1.51,2.59Z"/><path class="cls-3" d="M31.87,25H21.94L9.9,37.64l-.3,8.72L21.94,59h9.93L43,47.27V36.73Zm4.21,18L29.46,50H25l-6.62-7.22v-2.4l6.92-7.23h3.61l7.22,7.23Z"/><path class="cls-3" d="M75.79,37.64,63.76,25H53.83L42.7,36.73V47.27L53.83,59h9.93L76.1,46.36Zm-6.92,5.71-6.62,6.92H57.74l-6.62-7.22v-2.4L58,33.42h3.61l7.22,7.23Z"/></g></g></svg>