<svg xmlns="http://www.w3.org/2000/svg" viewBox="0 0 104 126"><defs><style>.cls-1{fill:#fff;}.cls-1,.cls-2{fill-rule:evenodd;}.cls-2{fill:#ec7745;}</style></defs><title>logros</title><g id="Capa_2" data-name="Capa 2"><g id="Capa_1-2" data-name="Capa 1"><path class="cls-1" d="M52,0a11.31,11.31,0,0,1,6.32,1.8c2.47,1.43,5.25,4.25,8.69,6,4.83,2.51,13.77-1,18.34,5.24,2.67,3.61,2.79,6.44,3,9.24.21,3,.8,5.79,4.19,9.87,5.62,6.77,6.79,11.27,3.89,16-2,3.2-6.12,5-7.08,7-2,4.31.21,7.56-2.58,12.58a14.42,14.42,0,0,1-8.94,7c-3.37,1-6.75-.45-9.45.59-4.74,1.82-8.23,6-12,7.1a16.11,16.11,0,0,1-8.71,0c-3.77-1.07-7.27-5.28-12-7.1-2.7-1-6.08.4-9.45-.59a14.45,14.45,0,0,1-8.94-7c-2.8-5-.54-8.27-2.58-12.58-.95-2-5.11-3.8-7.08-7C4.68,43.46,5.85,39,11.47,32.21c3.39-4.09,4-6.86,4.19-9.88.21-2.8.33-5.63,3-9.24C23.24,6.9,32.18,10.37,37,7.85c3.44-1.78,6.22-4.6,8.69-6A11.1,11.1,0,0,1,52,0Zm48.18,115.93-13-2.13-6.46,10.52c-4.68,5.28-7.66-3.4-9-6.43L59.2,96.34c2.9-.91,6.39-3.55,10-6.51,7.15.13,13.82-1,18.71-6.68l14.43,25.38,1.25,2.44c1,3.17.47,5.26-3.38,5Zm-96.36,0,13-2.13,6.46,10.52c4.68,5.28,7.66-3.4,9-6.43L44.81,96.34c-2.9-.91-6.39-3.55-10-6.51-7.15.13-13.82-1-18.71-6.68L1.69,108.53.44,111c-1,3.17-.48,5.26,3.38,5ZM51.87,16.51C67.41,16.51,80,28,80,42.13S67.41,67.75,51.87,67.75,23.73,56.28,23.73,42.13s12.6-25.62,28.14-25.62Z"/><path class="cls-2" d="M38.25,51.79H65.81l4.31-11.93A2.36,2.36,0,1,0,68.91,39l-2.45,2c-3.42,2.81-5.57,1.51-4.9-2.87l.38-2.46a2.69,2.69,0,0,0,.4,0,2.36,2.36,0,1,0-1.48-.52l-.58.93c-2.88,4.32-5,2.66-5.85-1.61l-1.52-7a2.37,2.37,0,1,0-1.54.1l-1,4c-.85,3.64-1.87,10.9-6.48,4.71l-.75-1a2.36,2.36,0,1,0-1.39.45,2.42,2.42,0,0,0,.54-.06l.15,1.6c.31,2.2.71,5.17-1.81,5A4.36,4.36,0,0,1,38,41.14l-2.73-1.93a2.34,2.34,0,0,0,.49-1.44,2.37,2.37,0,1,0-2.36,2.37,2.32,2.32,0,0,0,.87-.17l4,11.82Zm0,3.3H65.88V60H38.23V55.09Z"/></g></g></svg>