<svg xmlns="http://www.w3.org/2000/svg" viewBox="0 0 140 140"><defs><style>.cls-1{fill:#fff;}.cls-2{fill:#ec7745;fill-rule:evenodd;}</style></defs><title>retos</title><g id="Capa_2" data-name="Capa 2"><g id="Capa_1-2" data-name="Capa 1"><path class="cls-1" d="M70,0A69.21,69.21,0,0,0,27.24,14.92a4.1,4.1,0,0,0,5,6.48A61.11,61.11,0,0,1,70,8.2a61.9,61.9,0,0,1,58.29,41.29h-9.07A53.32,53.32,0,0,0,16.68,70a52.69,52.69,0,0,0,5.21,23,4.1,4.1,0,1,0,7.4-3.54A44.54,44.54,0,0,1,24.88,70a45.18,45.18,0,0,1,41-44.93v8.24A36.9,36.9,0,0,0,41.17,93L23.52,110.68A61.12,61.12,0,0,1,21.4,32.27a4.1,4.1,0,0,0-6.48-5A69.21,69.21,0,0,0,0,70,70,70,0,1,0,70,0ZM29.32,116.48,47,98.83A36.89,36.89,0,0,0,106.68,74.1h8.25a45,45,0,0,1-13,27.78h0a45,45,0,0,1-51.32,8.82,4.1,4.1,0,1,0-3.54,7.4,53.23,53.23,0,0,0,57.65-7.64l6,6a61.67,61.67,0,0,1-81.36,0Zm87.16-5.8-6-6A53,53,0,0,0,123.32,70a4.1,4.1,0,0,0-4.1-4.1H106.68A37.12,37.12,0,0,0,88.46,38a4.1,4.1,0,0,0-4.11,7.1,28.71,28.71,0,1,1-42.77,29V65.9A28.76,28.76,0,0,1,70,41.29a4.1,4.1,0,0,0,4.1-4.1V25.07A45.25,45.25,0,0,1,112.54,55a4.11,4.11,0,0,0,3.87,2.74h14.16A62.27,62.27,0,0,1,131.8,70a61.56,61.56,0,0,1-15.32,40.68Z"/><path class="cls-2" d="M69.92,46.1a5.35,5.35,0,0,1,3.28,1c1.29.86,2.73,2.43,4.52,3.42,2.51,1.43,7.15-.55,9.53,3a9.19,9.19,0,0,1,1.53,5.31A9.27,9.27,0,0,0,91,64.48c2.92,3.86,3.52,6.42,2,9.11-1,1.82-3.18,2.84-3.69,4C88.23,80,89.4,81.9,88,84.77a7.68,7.68,0,0,1-4.62,4c-1.75.56-3.5-.26-4.9.33-2.47,1-4.27,3.42-6.24,4.06a7.71,7.71,0,0,1-4.53,0c-2-.62-3.78-3-6.25-4.06-1.4-.59-3.16.23-4.91-.33a7.65,7.65,0,0,1-4.64-4c-1.46-2.87-.28-4.73-1.34-7.19-.5-1.15-2.66-2.17-3.69-4-1.5-2.68-.85-5.25,2-9.11A9.2,9.2,0,0,0,51,58.89a9.16,9.16,0,0,1,1.56-5.32c2.38-3.55,7-1.57,9.53-3,1.78-1,3.23-2.63,4.51-3.41A5.41,5.41,0,0,1,69.92,46.1ZM65.8,67.05l3,3,5.26-5.34c.52-.53.85-1,1.49-.29l2.08,2.13c.69.67.65,1.07,0,1.71L70,75.71c-1.37,1.33-1.13,1.42-2.5.05l-5.18-5.27a.59.59,0,0,1-.11-.83.52.52,0,0,1,.11-.1l2.41-2.51c.36-.39.65-.36,1,0Zm4-10.25A13.34,13.34,0,1,1,56.52,70.15,13.34,13.34,0,0,1,69.85,56.8Z"/></g></g></svg>