<svg xmlns="http://www.w3.org/2000/svg" viewBox="0 0 110.27 122.59"><defs><style>.cls-1{fill:#ec7745;}</style></defs><title>eventos_1</title><g id="Capa_2" data-name="Capa 2"><g id="Capa_1-2" data-name="Capa 1"><path class="cls-1" d="M61.79,65.72a1.84,1.84,0,0,0,1.13.39,1.81,1.81,0,0,0,1.4-.67L71,57.09a1.79,1.79,0,1,0-2.8-2.24l-6.69,8.34a1.8,1.8,0,0,0,.27,2.53Z"/><path class="cls-1" d="M48.89,68.19A1.78,1.78,0,0,0,51.42,68a53.42,53.42,0,0,0,7.42-10.38A1.8,1.8,0,0,0,55.65,56a50.27,50.27,0,0,1-6.93,9.69,1.79,1.79,0,0,0,.17,2.53Z"/><path class="cls-1" d="M61.8,76.34a1.79,1.79,0,0,0,.38,2.51,1.75,1.75,0,0,0,1.06.35,1.79,1.79,0,0,0,1.45-.73,49.92,49.92,0,0,1,8-8.87,1.8,1.8,0,0,0-2.31-2.75,53.22,53.22,0,0,0-8.53,9.49Z"/><path class="cls-1" d="M70.49,85.52a1.83,1.83,0,0,0,1,.33A1.77,1.77,0,0,0,73,85.09c3.07-4.31,7.17-8.77,14.3-9.11a1.8,1.8,0,0,0-.17-3.59c-8.72.42-13.7,5.9-17.05,10.62a1.8,1.8,0,0,0,.42,2.51Z"/><path class="cls-1" d="M46,49.28a1.79,1.79,0,0,0-1.58,2,10.54,10.54,0,0,1-1.65,7A1.8,1.8,0,0,0,45.82,60,14,14,0,0,0,48,50.86a1.81,1.81,0,0,0-2-1.58Z"/><path d="M107.39,10.84h-8V8.3a8.3,8.3,0,1,0-16.6,0v2.54H76V8.3a8.3,8.3,0,1,0-16.6,0v2.54H52.59V8.3A8.3,8.3,0,0,0,36,8.3v2.54H29.21V8.3a8.3,8.3,0,0,0-16.6,0v2.54H2.88A2.88,2.88,0,0,0,0,13.72v91.17a2.88,2.88,0,0,0,2.88,2.88H20.06l-2.7,9.35,0,.12c-.38,1.73-.58,3.65.79,4.75a2.78,2.78,0,0,0,1.78.6,7.36,7.36,0,0,0,3-.84l.11,0,25.5-13.93h58.9a2.89,2.89,0,0,0,2.88-2.88V13.72a2.89,2.89,0,0,0-2.88-2.88Zm-21-2.54a4.71,4.71,0,1,1,9.42,0v2.54H86.34ZM63,8.3a4.71,4.71,0,1,1,9.42,0v2.54H63Zm-23.38,0A4.71,4.71,0,1,1,49,8.3v2.54H39.58ZM16.2,8.3a4.71,4.71,0,0,1,9.42,0v2.54H16.2Zm5.12,110.21c-.24.12-.45.2-.63.27,0-.19.07-.43.13-.72l2.8-9.69,5,6.18Zm10.46-5.71-6.94-8.65,1.65-5.71,9.62,12Zm7.53-4.11L27.71,94.22l2.84-9.83,16.22,20.23ZM50,102.87,31.77,80.16l1.65-5.71,6.63,8.28a1.8,1.8,0,1,0,2.8-2.25L34.64,70.23l.8-2.79L51.06,80,67.61,93.24,57.5,98.76,48.15,87.09a1.8,1.8,0,1,0-2.8,2.25l8.95,11.17Zm52.3-60.81H58.76a1.51,1.51,0,1,0,0,3h43.51V97H55.2l14.21-7.14,2.16,1.6a1.72,1.72,0,0,0,1,.33,1.7,1.7,0,0,0,1.28-.57,1.41,1.41,0,0,0-.25-2.11L34.43,60.21a1.73,1.73,0,0,0-2.3.23,1.43,1.43,0,0,0,.25,2.12l2.17,1.59L24.29,96.82a.58.58,0,0,0-.05.14v0h-16V45.07H51.2a1.51,1.51,0,1,0,0-3H8.27V38h94Zm4.41-11.83H3.59V14.43h9V17a8.31,8.31,0,0,0,8.3,8.3,1.8,1.8,0,0,0,0-3.59A4.71,4.71,0,0,1,16.2,17V14.43H36V17a8.31,8.31,0,0,0,8.3,8.3,1.8,1.8,0,0,0,0-3.59A4.71,4.71,0,0,1,39.58,17V14.43H59.37V17a8.31,8.31,0,0,0,8.3,8.3,1.8,1.8,0,0,0,0-3.59A4.71,4.71,0,0,1,63,17V14.43H82.75V17a8.31,8.31,0,0,0,8.31,8.3,1.8,1.8,0,0,0,0-3.59A4.72,4.72,0,0,1,86.34,17V14.43h20.34Z"/></g></g></svg>